PathFileType	4	(X/Y/Z)	./resultDataOpenSim/trcMotMarkerGrf/sub09/qtm-14-06.trc
DataRate	CameraRate	NumFrames	NumMarkers	Units	OrigDataRate	OrigDataStartFrame	OrigNumFrames
250.000000	250.000000	7	24	m	250.000000	246	490
Frame#	Time	L.Toe.Tip			R.Toe.Tip			L.Ankle.Lat			R.Ankle.Lat			L.Ankle.Med			R.Ankle.Med			L.Heel			R.Heel			L.Knee.Lat			R.Knee.Lat			L.Knee.Med			R.Knee.Med			L.Thigh.Upper			R.Thigh.Upper			L.ASIS			R.ASIS			V.Sacral			L.Acromium			R.Acromium			C7			L.Elbow			R.Elbow			L.Wrist.Lat			R.Wrist.Lat
		X1	Y1	Z1	X2	Y2	Z2	X3	Y3	Z3	X4	Y4	Z4	X5	Y5	Z5	X6	Y6	Z6	X7	Y7	Z7	X8	Y8	Z8	X9	Y9	Z9	X10	Y10	Z10	X11	Y11	Z11	X12	Y12	Z12	X13	Y13	Z13	X14	Y14	Z14	X15	Y15	Z15	X16	Y16	Z16	X17	Y17	Z17	X18	Y18	Z18	X19	Y19	Z19	X20	Y20	Z20	X21	Y21	Z21	X22	Y22	Z22	X23	Y23	Z23	X24	Y24	Z24

246	0.98	0.15718498	-0.034113495	0.035948426	0.57099149	0.11967122	0.12088819	0.016626056	0.029464376	-0.017985061	0.42556667	0.12588839	0.14485012	0.040273553	0.050591464	0.076423759	0.44173268	0.16062738	0.051286175	-0.057122839	0.011393224	0.026473008	0.35899633	0.097272948	0.09336758	0.13675072	0.42877252	-0.083828231	0.52295008	0.56522913	0.181852	0.13739967	0.43305038	0.041245634	0.51922282	0.55135843	0.056969623	0.21922605	0.84362663	-0.14035838	0.24866019	0.86071491	0.22905184	0.32235079	0.92075576	-0.087358785	0.32130929	0.93683192	0.15285245	0.16061564	0.99343664	0.030761118	0.35976039	1.3744475	-0.12001985	0.30024839	1.3963146	0.20221189	0.26481485	1.4368554	0.027964988	0.25452825	1.0175297	-0.20502092	0.11115151	1.0903785	0.27793765	0.47627815	0.86107788	-0.18217654	0.17841299	0.83109638	0.32059183
247	0.984	0.15725278	-0.034104565	0.035964219	0.59120747	0.12021256	0.11994817	0.016737569	0.030295733	-0.017199938	0.44496139	0.1232433	0.14333727	0.041069413	0.051437527	0.076826975	0.46113924	0.15833262	0.049797352	-0.056749857	0.012755287	0.027457979	0.37980771	0.092902653	0.091251736	0.13776761	0.42946548	-0.083967622	0.52994511	0.56584103	0.18179058	0.13908108	0.43379591	0.040800355	0.5264552	0.55164535	0.057014978	0.22385633	0.84321281	-0.13975159	0.25496069	0.86068142	0.22934897	0.32814257	0.91992807	-0.087536863	0.32775207	0.93640689	0.15275589	0.16682892	0.99303889	0.030936328	0.36606608	1.3739588	-0.12023615	0.30743631	1.395767	0.20209844	0.27150794	1.4363317	0.027925385	0.2613415	1.0166093	-0.20503855	0.1179203	1.0903662	0.27805883	0.48504028	0.86278379	-0.18154246	0.18364889	0.83076048	0.32077738
248	0.988	0.15733079	-0.03410087	0.036000659	0.61128188	0.12091199	0.1191958	0.016898915	0.031146713	-0.01649974	0.46404446	0.12095206	0.14186846	0.041896505	0.05223511	0.077200825	0.48054965	0.15623078	0.048295833	-0.05636065	0.014104343	0.028393261	0.40067081	0.088791837	0.088990514	0.13887767	0.43008867	-0.084096772	0.53682527	0.56626832	0.18173981	0.14107768	0.43438861	0.040474616	0.53368863	0.55171994	0.057056712	0.22848791	0.84274265	-0.13899185	0.26121827	0.86050935	0.22964698	0.33401995	0.91904123	-0.08763395	0.33422092	0.93587527	0.15267325	0.1729663	0.99257489	0.030922926	0.37238686	1.3733998	-0.12044858	0.31463334	1.395128	0.20197757	0.27821549	1.4357371	0.02788493	0.26815308	1.0156233	-0.20503692	0.12475192	1.0902447	0.27818351	0.49375035	0.86442758	-0.18091268	0.18896772	0.83035022	0.3209773
249	0.992	0.15741949	-0.034102407	0.036047532	0.63115039	0.12179712	0.11863116	0.017103774	0.032040091	-0.015923463	0.48302155	0.11886235	0.14032743	0.042739332	0.052978023	0.077542423	0.49995658	0.15435181	0.046785706	-0.055957973	0.015431244	0.029240154	0.42163923	0.084936932	0.086584531	0.14012357	0.43064238	-0.084203151	0.54368396	0.56653635	0.18174461	0.14308554	0.43481839	0.040409864	0.540883	0.55158406	0.057138865	0.2332548	0.84221797	-0.13835568	0.26746505	0.86020622	0.22995995	0.34000637	0.91810338	-0.087633052	0.34073049	0.93524123	0.15259987	0.17895444	0.99205679	0.03058556	0.37872582	1.3727729	-0.1206686	0.32181132	1.3944106	0.20185668	0.28495838	1.4350744	0.027852443	0.27496576	1.014575	-0.20502425	0.13161582	1.0900293	0.27833217	0.50240843	0.86601393	-0.18028493	0.19436751	0.82986742	0.32119013
250	0.996	0.15751267	-0.034107494	0.036095194	0.65079939	0.1228302	0.11817594	0.017351912	0.032949005	-0.015441853	0.50221709	0.11674019	0.1385716	0.04356617	0.053681421	0.077850461	0.51934269	0.15270456	0.045250554	-0.055536956	0.016736751	0.029980008	0.44276863	0.081342391	0.084040819	0.1415293	0.43115926	-0.084266367	0.55052801	0.5666234	0.18182451	0.14496924	0.43513939	0.040599409	0.54800787	0.55126254	0.057283999	0.23826955	0.84164617	-0.13804797	0.27373852	0.85979738	0.23030012	0.34602572	0.91711518	-0.087584774	0.34729071	0.93451203	0.15252774	0.1848106	0.99149481	0.029987768	0.38508746	1.3720845	-0.12090062	0.32894969	1.3936283	0.20173818	0.2917307	1.4343329	0.027827818	0.28178385	1.0134686	-0.2050006	0.13850399	1.089721	0.27849412	0.51101753	0.86754345	-0.1796562	0.19984046	0.82931296	0.32141507
251	1	0.15759874	-0.034114526	0.03613241	0.67025611	0.12397146	0.1177295	0.017644044	0.0338398	-0.015020346	0.52180204	0.1144566	0.13655	0.044349124	0.054369251	0.078119304	0.53866145	0.15127695	0.043675648	-0.05509947	0.018026193	0.030606175	0.46403286	0.078034188	0.081355441	0.14309879	0.43166229	-0.08427176	0.55722005	0.56645748	0.18196764	0.14680713	0.43538753	0.040925709	0.55511857	0.55080439	0.057408935	0.24354481	0.84102831	-0.13806847	0.2800463	0.85929893	0.23065406	0.35189324	0.91605168	-0.087628434	0.35390025	0.93369527	0.15244333	0.19067133	0.99088898	0.02941451	0.39147519	1.3713398	-0.12113962	0.33605964	1.3927825	0.20162082	0.29851129	1.4335079	0.027821326	0.28860848	1.0123053	-0.20495821	0.14541795	1.0893163	0.2786605	0.51958031	0.86901364	-0.17902889	0.2053806	0.82868795	0.3216505
252	1.004	0.15766557	-0.034124109	0.036146094	0.68953508	0.12520666	0.11722205	0.017977667	0.03469326	-0.014654433	0.54160268	0.11212983	0.13437668	0.04508192	0.055048935	0.078340969	0.55783781	0.15006	0.042068514	-0.054661166	0.019300372	0.031110125	0.48529674	0.07505095	0.078533876	0.14484922	0.43212059	-0.084220171	0.56361489	0.56597684	0.18215532	0.14879966	0.43555412	0.041247306	0.56231386	0.55026093	0.057370014	0.24891903	0.84034677	-0.13819433	0.28637619	0.85870714	0.23099455	0.35744608	0.91487232	-0.087896554	0.36054737	0.93279924	0.15232984	0.19667478	0.99022444	0.029118074	0.39789222	1.3705403	-0.12137782	0.34317022	1.3918695	0.20150195	0.3052897	1.4326252	0.027861836	0.29543643	1.0110863	-0.2048906	0.15235706	1.0888215	0.27883785	0.52809344	0.87041827	-0.1784091	0.21099692	0.8279968	0.32190204
